<svg xmlns="http://www.w3.org/2000/svg" xmlns:xlink="http://www.w3.org/1999/xlink" width="259.458" height="168.434" viewBox="0 0 259.458 168.434">
  <defs>
    <linearGradient id="linear-gradient" x1="0.5" x2="0.5" y2="1" gradientUnits="objectBoundingBox">
      <stop offset="0" stop-color="#60efff"/>
      <stop offset="1" stop-color="#0b4f6c"/>
    </linearGradient>
  </defs>
  <g id="Co_Rakshak-01" data-name="Co Rakshak-01" transform="translate(-40 -209.91)">
    <path id="Path_1" data-name="Path 1" d="M234.594,274.774l-22.936,22.936a32.432,32.432,0,0,1,0-45.859h0ZM104.865,307.207a32.432,32.432,0,1,1,22.923-55.355h0l22.923-22.936a64.852,64.852,0,1,0,.013,91.731v-.013L127.8,297.711A32.381,32.381,0,0,1,104.865,307.207Zm129.729-97.3a64.662,64.662,0,0,0-45.859,19.005l22.923,22.936a32.432,32.432,0,0,0,0,45.859l22.936-22.936-22.923-22.923a32.432,32.432,0,1,1,0,45.859l-22.936,22.936A64.864,64.864,0,1,0,234.594,209.91Zm-22.923,41.941h0a32.432,32.432,0,0,0,0,45.859l22.936-22.936Z" fill="url(#linear-gradient)"/>
    <path id="Path_2" data-name="Path 2" d="M57.754,783.345a12.334,12.334,0,0,1-4.829-4.629,13.52,13.52,0,0,1,.023-13.334,12.453,12.453,0,0,1,4.847-4.631,14.187,14.187,0,0,1,6.9-1.676,14.377,14.377,0,0,1,5.656,1.082,11.535,11.535,0,0,1,4.325,3.134l-3.028,2.854a8.822,8.822,0,0,0-6.746-2.955,9.442,9.442,0,0,0-4.649,1.136,8.2,8.2,0,0,0-3.207,3.152,9.667,9.667,0,0,0,0,9.154,8.163,8.163,0,0,0,3.207,3.152,9.442,9.442,0,0,0,4.649,1.136,8.775,8.775,0,0,0,6.746-2.992l3.028,2.883a11.522,11.522,0,0,1-4.346,3.129,14.559,14.559,0,0,1-5.674,1.079,14.2,14.2,0,0,1-6.9-1.676Z" transform="translate(-8.279 -406.679)" fill="#0b4f6c"/>
    <path id="Path_3" data-name="Path 3" d="M154.669,783.35A12.421,12.421,0,0,1,149.8,778.7a13.409,13.409,0,0,1,0-13.3,12.409,12.409,0,0,1,4.865-4.649,15.266,15.266,0,0,1,13.91,0,12.42,12.42,0,0,1,4.878,4.631,13.461,13.461,0,0,1,0,13.334,12.415,12.415,0,0,1-4.865,4.629,15.267,15.267,0,0,1-13.91,0Zm11.5-3.568a8.2,8.2,0,0,0,3.171-3.171,9.6,9.6,0,0,0,0-9.117,8.22,8.22,0,0,0-3.171-3.171,9.639,9.639,0,0,0-9.081,0,8.225,8.225,0,0,0-3.173,3.171,9.6,9.6,0,0,0,0,9.117,8.21,8.21,0,0,0,3.173,3.171A9.639,9.639,0,0,0,166.165,779.782Z" transform="translate(-80.008 -406.683)" fill="#0b4f6c"/>
    <path id="Path_4" data-name="Path 4" d="M269.88,811.86h9.911v3.747H269.88Z" transform="translate(-170.236 -445.769)" fill="#0b4f6c"/>
    <path id="Path_5" data-name="Path 5" d="M345.879,785.695l-5.153-7.387c-.215.023-.54.036-.973.036h-5.7v7.35H329.37V760.47h10.378a13.929,13.929,0,0,1,5.708,1.082,8.3,8.3,0,0,1,3.731,3.1,8.679,8.679,0,0,1,1.3,4.792,8.523,8.523,0,0,1-1.388,4.9,8.246,8.246,0,0,1-3.98,3.064l5.8,8.287Zm-1.694-19.963a7.185,7.185,0,0,0-4.647-1.3h-5.485v10.054h5.48a7.127,7.127,0,0,0,4.647-1.315,4.566,4.566,0,0,0,1.585-3.731,4.52,4.52,0,0,0-1.585-3.71Z" transform="translate(-214.291 -407.713)" fill="#0b4f6c"/>
    <path id="Path_6" data-name="Path 6" d="M440.189,779.857H427.574l-2.486,5.838H420.26l11.349-25.225h4.613l11.385,25.224h-4.9Zm-1.557-3.674-4.756-11.027-4.717,11.019Z" transform="translate(-281.598 -407.713)" fill="#0b4f6c"/>
    <path id="Path_7" data-name="Path 7" d="M545.844,775.137l-4,4.107v6.45H537.16V760.47h4.686v12.937L554.3,760.47h5.262l-10.594,11.279,11.242,13.946h-5.464Z" transform="translate(-368.168 -407.713)" fill="#0b4f6c"/>
    <path id="Path_8" data-name="Path 8" d="M634.707,784.228a11.8,11.8,0,0,1-4.307-2.2l1.622-3.632a12.714,12.714,0,0,0,3.8,2,13.77,13.77,0,0,0,4.522.778,7.819,7.819,0,0,0,4.2-.9,2.73,2.73,0,0,0,1.386-2.379,2.291,2.291,0,0,0-.778-1.782,5.429,5.429,0,0,0-1.962-1.1q-1.191-.4-3.243-.9a37.737,37.737,0,0,1-4.67-1.37,7.7,7.7,0,0,1-3.064-2.143,5.774,5.774,0,0,1-1.279-3.946,6.717,6.717,0,0,1,1.136-3.8,7.69,7.69,0,0,1,3.422-2.722,13.857,13.857,0,0,1,5.6-1.009,18.125,18.125,0,0,1,4.541.576,12.508,12.508,0,0,1,3.858,1.648l-1.476,3.632a14.531,14.531,0,0,0-3.453-1.476,12.9,12.9,0,0,0-3.495-.506,7.3,7.3,0,0,0-4.125.937,2.893,2.893,0,0,0-1.352,2.488,2.242,2.242,0,0,0,.778,1.764,5.59,5.59,0,0,0,1.964,1.082q1.186.4,3.243.9a34.066,34.066,0,0,1,4.611,1.352,7.9,7.9,0,0,1,3.082,2.143,5.671,5.671,0,0,1,1.279,3.892,6.663,6.663,0,0,1-1.134,3.785,7.714,7.714,0,0,1-3.443,2.7,14.062,14.062,0,0,1-5.622,1.009A19.229,19.229,0,0,1,634.707,784.228Z" transform="translate(-437.216 -406.713)" fill="#0b4f6c"/>
    <path id="Path_9" data-name="Path 9" d="M747.575,760.47v25.224H742.9V774.878H729.846v10.809H725.16V760.47h4.686v10.415h13.046V760.47Z" transform="translate(-507.39 -407.713)" fill="#0b4f6c"/>
    <path id="Path_10" data-name="Path 10" d="M842.937,779.857H830.324l-2.486,5.838H823l11.354-25.225h4.611l11.388,25.224h-4.891Zm-1.557-3.674-4.756-11.027-4.714,11.019Z" transform="translate(-579.844 -407.713)" fill="#0b4f6c"/>
    <path id="Path_11" data-name="Path 11" d="M948.668,775.137l-4,4.107v6.45H940V760.47h4.67v12.937l12.47-12.937H962.4l-10.6,11.279,11.245,13.946h-5.477Z" transform="translate(-666.488 -407.713)" fill="#0b4f6c"/>
  </g>
</svg>
